HIERARCHY
ROOT root
{
	OFFSET 0.000000 0.000000 0.000000
	CHANNELS 6 Xposition Yposition Zposition Zrotation Yrotation Xrotation
	JOINT lhip
	{
		OFFSET 0.058581 -0.082280 -0.017664
		CHANNELS 3 Zrotation Yrotation Xrotation
		JOINT lknee
		{
			OFFSET 0.043451 -0.386469 0.008037
			CHANNELS 3 Zrotation Yrotation Xrotation
			JOINT lankle
			{
				OFFSET -0.014790 -0.426874 -0.037428
				CHANNELS 3 Zrotation Yrotation Xrotation
				JOINT ltoe
				{
					OFFSET 0.041054 -0.060286 0.122042
					CHANNELS 3 Zrotation Yrotation Xrotation
					End Site
					{
						OFFSET 0.000000 0.000000 0.000000
					}
				}
			}
		}
	}
	JOINT rhip
	{
		OFFSET -0.060310 -0.090513 -0.013543
		CHANNELS 3 Zrotation Yrotation Xrotation
		JOINT rknee
		{
			OFFSET -0.043257 -0.383688 -0.004843
			CHANNELS 3 Zrotation Yrotation Xrotation
			JOINT rankle
			{
				OFFSET 0.019056 -0.420046 -0.034562
				CHANNELS 3 Zrotation Yrotation Xrotation
				JOINT rtoe
				{
					OFFSET -0.034840 -0.062106 0.130323
					CHANNELS 3 Zrotation Yrotation Xrotation
					End Site
					{
						OFFSET 0.000000 0.000000 0.000000
					}
				}
			}
		}
	}
	JOINT lowerback
	{
		OFFSET 0.004439 0.124404 -0.038385
		CHANNELS 3 Zrotation Yrotation Xrotation
		JOINT upperback
		{
			OFFSET 0.004488 0.137956 0.026820
			CHANNELS 3 Zrotation Yrotation Xrotation
			JOINT chest
			{
				OFFSET -0.002265 0.056032 0.002855
				CHANNELS 3 Zrotation Yrotation Xrotation
				JOINT lowerneck
				{
					OFFSET -0.013390 0.211636 -0.033468
					CHANNELS 3 Zrotation Yrotation Xrotation
					JOINT upperneck
					{
						OFFSET 0.010113 0.088937 0.050410
						CHANNELS 3 Zrotation Yrotation Xrotation
						End Site
						{
							OFFSET 0.000000 0.000000 0.000000
						}
					}
				}
				JOINT lclavicle
				{
					OFFSET 0.071702 0.114000 -0.018898
					CHANNELS 3 Zrotation Yrotation Xrotation
					JOINT lshoulder
					{
						OFFSET 0.122921 0.045205 -0.019046
						CHANNELS 3 Zrotation Yrotation Xrotation
						JOINT lelbow
						{
							OFFSET 0.255332 -0.015649 -0.022946
							CHANNELS 3 Zrotation Yrotation Xrotation
							JOINT lwrist
							{
								OFFSET 0.265709 0.012698 -0.007375
								CHANNELS 3 Zrotation Yrotation Xrotation
								End Site
								{
									OFFSET 0.000000 0.000000 0.000000
								}
							}
						}
					}
				}
				JOINT rclavicle
				{
					OFFSET -0.082954 0.112472 -0.023707
					CHANNELS 3 Zrotation Yrotation Xrotation
					JOINT rshoulder
					{
						OFFSET -0.113228 0.046853 -0.008472
						CHANNELS 3 Zrotation Yrotation Xrotation
						JOINT relbow
						{
							OFFSET -0.260127 -0.014369 -0.031269
							CHANNELS 3 Zrotation Yrotation Xrotation
							JOINT rwrist
							{
								OFFSET -0.269108 0.006794 -0.006027
								CHANNELS 3 Zrotation Yrotation Xrotation
								End Site
								{
									OFFSET 0.000000 0.000000 0.000000
								}
							}
						}
					}
				}
			}
		}
	}
}
MOTION
Frames: 18
Frame Time: 0.033333
-0.402828 0.805825 0.983468 84.530992 3.529275 87.323371 6.677961 1.509642 6.443870 -4.512804 -8.436599 2.092025 5.598958 6.691390 -20.162796 0.000000 -0.000000 0.000000 -4.816257 -3.718811 3.346661 3.884958 -0.775066 6.999743 6.339522 0.016435 -11.564027 0.000000 -0.000000 0.000000 -1.841261 1.803726 1.983879 2.208090 -2.644061 5.093740 -0.952879 -0.969528 2.079906 6.100888 -12.104250 -5.101973 1.836265 -21.056126 2.380440 -22.074157 10.142698 0.948076 -56.664609 -8.930269 9.465199 1.251494 -62.828441 29.118399 -7.157158 -14.455977 2.241956 20.780317 -5.417739 -1.641935 59.146732 2.051600 12.660480 -26.332074 65.459705 6.162625 6.212457 6.882464 15.109872 
-0.401901 0.804166 0.982949 84.617285 3.544955 87.480158 6.824915 1.533802 6.306715 -4.568318 -8.865046 2.237096 5.602811 7.011858 -20.037444 0.000000 -0.000000 0.000000 -4.641221 -3.336510 3.309039 4.011634 -0.444726 7.052924 6.068138 -0.774345 -11.797059 0.000000 -0.000000 0.000000 -1.684696 1.797558 1.705152 2.110188 -2.814491 5.325405 -0.882770 -1.104564 1.639518 5.919767 -12.041303 -4.766635 1.800149 -20.613226 2.414002 -22.324991 8.044311 1.440788 -57.126337 -8.586672 9.223852 5.983749 -51.374722 23.902022 -11.582083 -11.672414 2.283139 20.712926 -4.239653 -0.831210 59.510323 1.851548 12.116845 -23.627515 56.997028 9.118632 9.587571 4.654605 14.494823 
-0.401708 0.803010 0.982418 84.569814 3.567034 87.699909 6.920376 1.489721 6.067634 -4.616502 -9.202989 2.452948 5.614721 7.516979 -19.903266 0.000000 -0.000000 0.000000 -4.465023 -2.924091 3.018604 4.157203 -0.240741 7.262947 5.577323 -1.400253 -11.943298 0.000000 -0.000000 0.000000 -1.570694 1.803585 1.543209 2.021874 -2.999148 5.566614 -0.693388 -1.404858 0.943279 5.185098 -11.957568 -3.298199 2.544142 -19.746086 1.203752 -22.210813 5.345873 2.225978 -57.915387 -7.191928 9.221429 9.134675 -39.401752 21.014375 -15.986798 -8.353662 1.233185 20.679789 -2.482783 0.430842 59.468449 1.933462 11.452667 -20.882413 48.114131 11.512968 12.331350 1.695328 12.493192 
-0.399493 0.801664 0.980845 84.541021 3.743798 87.362111 7.439135 2.071104 6.716998 -4.718003 -9.805367 2.467554 5.278579 7.599250 -20.179942 0.000000 -0.000000 0.000000 -4.158042 -2.986904 3.736541 4.363035 0.215463 6.927801 4.906657 -1.711365 -12.074234 0.000000 -0.000000 0.000000 -1.527751 1.931867 1.905481 1.853729 -3.387287 6.040855 -0.106777 -1.739300 0.132943 4.591259 -12.153164 -2.833455 3.043079 -18.470024 0.661284 -21.605976 2.060379 3.028644 -60.579524 -5.344766 8.594692 11.998967 -22.087310 18.517998 -22.197597 -5.638637 -0.395507 20.317023 -0.216598 1.598061 59.450813 1.916446 10.277467 -16.769427 33.993900 14.806795 18.973764 -0.123010 9.108731 
-0.399055 0.801430 0.980330 84.516190 3.783082 87.382816 7.563146 2.145362 6.767068 -4.773461 -9.815303 2.477070 5.205009 7.581630 -20.236133 0.000000 -0.000000 0.000000 -4.068576 -3.033925 3.747708 4.383501 0.187344 6.889978 4.707005 -1.600583 -12.061770 0.000000 -0.000000 0.000000 -1.487210 1.877878 1.921295 1.784462 -3.446610 6.150079 -0.025900 -1.796914 -0.057152 4.565307 -12.108887 -2.889129 3.032403 -18.218187 0.572265 -21.493977 1.744259 3.262814 -61.439409 -4.969587 8.214502 12.843483 -17.926891 18.373316 -25.297041 -4.736632 -0.316968 20.280518 0.263507 1.802112 59.802236 2.328358 9.797497 -16.027052 28.739543 15.508300 21.505285 -0.885441 8.406094 
-0.398286 0.800820 0.979597 84.324157 3.854639 87.364022 7.774524 2.344571 6.922331 -4.859576 -9.695913 2.573072 5.144995 7.529996 -20.391901 0.000000 -0.000000 0.000000 -3.879005 -3.027659 3.740948 4.339117 0.167294 6.997556 4.472259 -1.250345 -12.036489 0.000000 -0.000000 0.000000 -1.484233 1.757712 2.153706 1.754509 -3.408575 6.212883 0.103203 -1.668843 -0.473285 4.660590 -11.947005 -3.070142 2.756462 -18.156208 0.481255 -21.586656 1.960150 3.795890 -62.271488 -4.018524 7.321407 13.682286 -12.942706 19.428659 -30.746450 -2.633440 1.727571 20.386995 0.737133 2.211841 60.669313 2.603823 8.414565 -16.287027 20.692571 14.950795 25.482901 -1.870069 8.014708 
-0.397049 0.799805 0.979027 84.070922 3.910891 87.258891 7.987295 2.456025 7.336407 -4.938473 -9.742769 2.378711 5.141452 7.674331 -20.426950 0.000000 -0.000000 0.000000 -3.680591 -2.827165 3.881593 4.315942 0.314423 7.093195 4.317606 -1.266949 -12.162915 0.000000 -0.000000 0.000000 -1.582328 1.795079 2.129658 1.887912 -3.129264 6.574481 0.098996 -1.535960 -0.523445 5.005931 -11.529838 -3.487834 2.455165 -18.522600 0.123828 -22.075634 2.968492 4.199411 -61.728567 -2.866177 6.985211 13.034436 -12.148303 20.885707 -32.606789 -1.465267 3.273759 20.902506 0.465131 2.410246 61.338615 2.360417 7.436173 -17.452871 15.580316 12.850824 25.265647 -2.343638 8.624185 
-0.396566 0.798821 0.978703 83.955371 3.971822 87.268519 8.120171 2.416805 7.397788 -5.008194 -9.937690 2.465738 5.156123 8.050861 -20.527201 0.000000 -0.000000 0.000000 -3.471292 -2.754607 3.991487 4.290911 0.641060 7.015390 4.279302 -1.546692 -12.201464 0.000000 -0.000000 0.000000 -1.595158 1.877162 2.258142 1.969355 -2.771946 6.568708 0.007470 -1.389225 -0.246125 5.502131 -11.364267 -4.142959 2.438241 -18.568465 -0.271458 -22.858396 4.629580 4.294406 -60.302593 -1.929841 6.554650 11.904234 -13.732679 21.078952 -32.390483 -1.466259 3.121189 21.689219 -0.805226 2.246198 61.330311 1.720122 6.892180 -17.619882 13.449259 11.411485 24.246081 -2.330052 8.941119 
-0.395604 0.798203 0.978374 83.920319 3.922593 87.325251 8.075480 2.295104 7.507918 -5.028470 -10.124255 2.355801 5.228108 8.471934 -20.583062 0.000000 -0.000000 0.000000 -3.497776 -2.985039 4.002949 4.324135 1.033137 7.078661 4.321876 -1.742985 -12.371018 0.000000 -0.000000 0.000000 -1.596179 1.918742 2.173172 1.906686 -2.527052 6.605620 -0.134882 -1.299218 0.100672 5.647237 -11.367633 -3.980152 3.131553 -18.414394 -1.032595 -23.336602 6.434259 4.182971 -58.955741 -0.945301 6.368626 10.641555 -16.418607 19.876026 -30.329518 -2.452399 1.403410 22.268852 -2.119323 2.085263 61.044707 0.449084 6.958532 -16.791592 13.980224 10.195165 22.380642 -1.456238 8.547880 
-0.394510 0.797745 0.978213 83.951522 3.832396 87.266367 8.019252 2.281354 7.822860 -5.040193 -10.364971 2.063068 5.258231 8.692448 -20.562847 0.000000 -0.000000 0.000000 -3.559071 -3.093140 4.161270 4.312718 1.278637 7.140079 4.343139 -1.985588 -12.593014 0.000000 -0.000000 0.000000 -1.657488 1.957669 2.135078 1.828141 -2.236907 6.662215 -0.217931 -1.169839 0.458360 5.955056 -11.583771 -4.097598 3.437622 -18.437775 -1.302412 -23.515975 7.870706 4.156911 -57.984482 -0.377830 6.286558 9.473095 -19.158739 19.053610 -27.581369 -3.630484 0.129702 22.528188 -2.971643 2.113847 61.076167 -0.727832 7.168893 -15.940314 15.066092 8.754629 19.984285 -0.131894 7.597658 
-0.393527 0.797633 0.978331 84.312898 3.831017 87.100731 8.046518 2.264709 7.962586 -5.050164 -10.774575 2.174915 5.278043 8.738475 -20.807469 0.000000 -0.000000 0.000000 -3.538623 -3.399912 4.485418 4.251044 1.367287 7.199364 4.437505 -2.117757 -12.814084 0.000000 -0.000000 0.000000 -1.672515 2.001886 2.370218 1.820211 -2.103635 6.513872 -0.237813 -0.961966 0.753277 6.308129 -11.888053 -4.382173 3.316698 -18.699478 -0.973354 -23.346678 8.948176 4.255004 -57.551268 -0.391061 6.309610 8.410917 -21.602852 19.299507 -24.719671 -4.760196 -0.408557 22.501399 -3.717993 1.964652 61.585501 -1.323139 6.881809 -15.249792 15.246101 7.299264 16.927759 1.591609 6.811669 
-0.393878 0.797436 0.978616 84.513720 3.830128 87.144402 8.000971 2.177843 7.655928 -5.004764 -10.771833 2.621184 5.280424 8.639928 -20.947940 0.000000 -0.000000 0.000000 -3.453791 -3.377976 4.388288 4.139994 1.056686 7.382396 4.423308 -2.063170 -12.842532 0.000000 -0.000000 0.000000 -1.740479 1.959629 2.491480 1.885346 -2.005163 6.439484 -0.198542 -1.003423 0.865929 6.185479 -12.024063 -3.954810 3.411382 -18.882024 -1.354474 -23.290776 9.551675 4.126245 -57.429313 -0.288635 6.552522 8.191665 -23.666240 19.318688 -24.378786 -4.871017 -0.642875 22.443103 -4.055613 1.786572 62.040130 -1.910011 6.828591 -15.269715 16.147509 5.266826 17.007253 1.886494 3.774370 
-0.393552 0.797404 0.978577 84.716585 3.843427 87.038113 8.055296 2.168619 7.828859 -5.000885 -10.781895 2.532228 5.328111 8.445577 -20.970079 0.000000 -0.000000 0.000000 -3.417526 -3.438069 4.592290 4.085019 0.936197 7.373536 4.441681 -2.104019 -12.823501 0.000000 -0.000000 0.000000 -1.766131 1.974101 2.514218 1.971527 -2.075138 6.499326 -0.161877 -1.074888 0.919559 6.037365 -11.718892 -3.427161 3.235869 -18.525728 -0.974365 -23.082884 9.509925 4.200236 -57.791268 -0.568255 6.671827 8.307328 -24.296790 19.249902 -23.675377 -5.073077 -1.060444 22.488418 -4.205734 1.918106 62.493519 -1.695841 6.792991 -15.668887 16.461523 4.308022 16.752086 2.041432 2.630966 
-0.393660 0.797432 0.978486 84.875249 3.835908 86.982608 8.041479 2.116318 7.910614 -4.930958 -10.800346 2.444716 5.265666 8.326167 -21.069834 0.000000 -0.000000 0.000000 -3.419862 -3.447911 4.635230 4.070579 0.671423 7.466477 4.471266 -2.047681 -12.919597 0.000000 -0.000000 0.000000 -1.796384 1.995192 2.573469 2.034855 -2.123523 6.456448 -0.146375 -1.071538 0.974894 5.968660 -11.513134 -3.292550 3.055858 -18.645352 -0.623562 -23.085623 9.269954 4.107458 -57.912185 -0.967469 6.866067 8.424252 -24.692213 19.212754 -22.266967 -5.451750 -0.707338 22.717693 -4.213334 1.840604 62.618345 -1.254299 6.926986 -15.875406 16.827610 4.471685 15.729873 2.593723 3.287165 
-0.394386 0.797535 0.978265 84.747537 3.759596 87.093198 7.992916 2.128618 7.859371 -4.990032 -10.677955 2.269726 5.323477 8.297636 -20.963113 0.000000 -0.000000 0.000000 -3.512672 -3.240061 4.395046 4.081935 0.665330 7.643016 4.483881 -2.061477 -12.929607 0.000000 -0.000000 0.000000 -1.865501 2.075232 2.482755 2.083728 -2.094856 6.345959 -0.149374 -1.066378 1.050596 5.794870 -11.351321 -3.167693 2.980088 -18.742169 -0.364467 -22.936840 8.831821 4.263091 -58.061984 -1.400223 7.326460 8.389740 -25.519808 19.529979 -19.587773 -6.208300 -0.505344 22.786122 -3.892928 2.178718 62.389812 -1.013213 7.558248 -15.515992 18.616870 5.212890 12.810545 3.635263 4.044076 
-0.394872 0.797812 0.978267 84.868597 3.738315 87.171731 7.959039 2.047194 7.716047 -5.004594 -10.622226 2.307340 5.350032 8.253107 -20.950438 0.000000 -0.000000 0.000000 -3.564512 -3.327752 4.337465 4.087436 0.620779 7.584468 4.565559 -2.067315 -12.900699 0.000000 -0.000000 0.000000 -1.824246 2.040331 2.535167 2.061066 -2.212118 6.233604 -0.189603 -1.132454 1.135725 5.715414 -11.196117 -3.271615 2.986580 -18.564095 -0.246087 -23.059713 8.640988 4.104070 -57.715687 -1.787987 7.593736 8.154239 -27.128622 19.710914 -17.957157 -6.628146 0.130113 22.844067 -3.796340 1.990289 61.910549 -1.076011 8.087607 -15.157192 21.393045 5.906796 11.976623 3.850328 4.302388 
-0.395532 0.798044 0.978364 84.860107 3.666130 87.225892 7.861697 2.026644 7.584065 -5.007976 -10.493719 2.377868 5.330750 8.164884 -20.945598 0.000000 -0.000000 0.000000 -3.672599 -3.341382 4.187046 4.096761 0.558030 7.688139 4.691474 -2.009241 -12.866393 0.000000 -0.000000 0.000000 -1.808026 1.958320 2.659451 2.005310 -2.251008 6.024374 -0.225778 -1.214278 1.190418 5.630348 -10.928351 -3.423769 2.852250 -18.238790 0.053014 -23.154433 8.523724 3.906629 -57.242836 -2.056342 7.812453 7.701511 -29.214759 19.445461 -15.634395 -7.498467 0.294934 22.805421 -3.825052 1.815499 61.386711 -0.853018 8.610087 -14.568536 24.458817 6.466806 10.717584 4.299364 4.556257 
-0.396599 0.798243 0.978634 84.606005 3.615995 87.178827 7.727223 1.951311 7.613846 -4.924322 -10.285950 2.367852 5.208075 8.211878 -21.024396 0.000000 -0.000000 0.000000 -3.755519 -3.243521 4.013835 4.035289 0.593424 7.849540 5.026344 -1.968518 -12.977119 0.000000 -0.000000 0.000000 -1.732724 1.912135 2.861158 2.048496 -2.109332 5.843675 -0.418467 -1.169182 1.427155 5.906386 -10.074888 -4.163350 2.095129 -17.802523 1.226511 -23.741274 8.918653 3.713454 -54.956334 -2.587909 8.317863 5.568056 -36.281932 21.991413 -12.551858 -9.934829 3.538825 23.295851 -4.210586 1.485506 59.564941 -0.941811 9.408995 -14.071840 32.113453 7.938325 9.012961 6.176771 6.496560 
